# xmcd CD database file
# Copyright (C) 1997 Ti Kan
# 
# Track frame offsets:
#     182
#     22465
#     39110
#     56677
#     71215
#     89280
#     107527
#     122197
#     137472
#     153477
# 
# Disc length: 2290 seconds
# 
# Revision: 1
# Processed by: cddbd v1.4b41PL1 Copyright (c) Steve Scherf et al.
# Submitted via: DiscPlay 4.0.3
# 
DISCID=8708f00a
DTITLE=Raymond Lefevre - Digital Parade
DYEAR=1900
DGENRE=
TTITLE0=Billie Jean
TTITLE1=Midnight Blue
TTITLE2=Running After A Star
TTITLE3=Automne En Irlande
TTITLE4=Tango Bleu
TTITLE5=Litaliano
TTITLE6=Belle
TTITLE7=Allegro Digital
TTITLE8=Just Melody
TTITLE9=Let's Dance
EXTD=
EXTT0=
EXTT1=
EXTT2=
EXTT3=
EXTT4=
EXTT5=
EXTT6=
EXTT7=
EXTT8=
EXTT9=
PLAYORDER=
